<?xml version="1.0" encoding="UTF-8"?><svg xmlns="http://www.w3.org/2000/svg" viewBox="0 0 512 512" width="512" height="512" preserveAspectRatio="xMidYMid meet" style="width: 100%; height: 100%; transform: translate3d(0px, 0px, 0px);"><defs><clipPath id="__lottie_element_77"><rect width="512" height="512" x="0" y="0"></rect></clipPath><clipPath id="__lottie_element_79"><path d="M0,0 L512,0 L512,512 L0,512z"></path></clipPath></defs><g clip-path="url(#__lottie_element_77)"><g clip-path="url(#__lottie_element_79)" transform="matrix(1,0,0,1,0,0)" opacity="1" style="display: block;"><g transform="matrix(1,0,0,1,246,278)" opacity="1" style="display: block;"><g opacity="1" transform="matrix(1,0,0,1,0,0)"><path stroke-linecap="round" stroke-linejoin="round" fill-opacity="0" stroke="rgb(42,54,58)" stroke-opacity="1" stroke-width="9" d="M0 0"></path></g><g opacity="1" transform="matrix(1,0,0,1,0,0)"><path stroke-linecap="round" stroke-linejoin="miter" fill-opacity="0" stroke-miterlimit="4" stroke="rgb(42,54,58)" stroke-opacity="1" stroke-width="9" d="M0 0"></path></g><g opacity="1" transform="matrix(1,0,0,1,0,0)"><path stroke-linecap="round" stroke-linejoin="miter" fill-opacity="0" stroke-miterlimit="4" stroke="rgb(42,54,58)" stroke-opacity="1" stroke-width="9" d="M0 0"></path></g></g><g transform="matrix(0.8740000128746033,0,0,0.965999960899353,13.381553649902344,3.6285085678100586)" opacity="1" style="display: block;"><g opacity="1" transform="matrix(1,0,0,1,290.1260070800781,392.0060119628906)"><path fill="rgb(110,184,234)" fill-opacity="1" d=" M-65.09400177001953,-45.887001037597656 C-100.927001953125,-27.208999633789062 -107.62699890136719,18.319000244140625 -83.22899627685547,48.308998107910156 C-83.22899627685547,48.308998107910156 -56.61800003051758,67.46800231933594 9.991000175476074,62.3380012512207 C51.29999923706055,59.15700149536133 80.0510025024414,43.1150016784668 80.0510025024414,43.1150016784668 C115.22899627685547,6.420000076293945 94.20500183105469,-47.7760009765625 48.97100067138672,-58.332000732421875 C10.906999588012695,-67.21499633789062 -29.424999237060547,-64.4800033569336 -65.09400177001953,-45.887001037597656z"></path></g><g opacity="1" transform="matrix(1,0,0,1,290.1260070800781,384.55499267578125)"><path stroke-linecap="round" stroke-linejoin="round" fill-opacity="0" stroke="rgb(42,54,58)" stroke-opacity="1" stroke-width="8.5" d=" M80.0510025024414,50.564998626708984 C115.22899627685547,13.869999885559082 94.20500183105469,-40.32500076293945 48.97100067138672,-50.88100051879883 C10.906999588012695,-59.763999938964844 -29.424999237060547,-57.02899932861328 -65.09400177001953,-38.43600082397461 C-100.927001953125,-19.757999420166016 -107.62699890136719,25.770000457763672 -83.22899627685547,55.7599983215332"></path></g></g><g transform="matrix(0.8448346257209778,-0.08977540582418442,0.08606211096048355,0.9893676042556763,253.58175659179688,279.5457763671875)" opacity="1" style="display: block;"><g opacity="1" transform="matrix(1,0,0,1,0,0)"><path fill="rgb(110,184,234)" fill-opacity="1" d=" M92.1500015258789,93.39600372314453 C185.88900756835938,57.084999084472656 159.28399658203125,-116.08999633789062 -9.958999633789062,-100.23100280761719 C-186.34300231933594,-83.7030029296875 -170.33200073242188,75.69999694824219 -77.73100280761719,101.25399780273438"></path><path stroke-linecap="round" stroke-linejoin="round" fill-opacity="0" stroke="rgb(42,54,58)" stroke-opacity="1" stroke-width="8.5" d=" M92.1500015258789,93.39600372314453 C185.88900756835938,57.084999084472656 159.28399658203125,-116.08999633789062 -9.958999633789062,-100.23100280761719 C-186.34300231933594,-83.7030029296875 -170.33200073242188,75.69999694824219 -77.73100280761719,101.25399780273438"></path></g></g><g transform="matrix(0.8445024490356445,0.11530935019254684,-0.0826517716050148,0.9136371612548828,18.331016540527344,-37.2041015625)" opacity="1" style="display: block;"><g opacity="1" transform="matrix(1,0,0,1,333.67498779296875,120.37000274658203)"><path fill="rgb(110,184,234)" fill-opacity="1" d=" M-41.09299850463867,86.427001953125 C-117.89399719238281,-23.888999938964844 -33.79899978637695,-109.08399963378906 -12.876999855041504,-103.32099914550781 C5.053999900817871,-98.38200378417969 110.32755279541016,-33.668174743652344 55.18055725097656,114.0968246459961"></path><path stroke-linecap="round" stroke-linejoin="round" fill-opacity="0" stroke="rgb(42,54,58)" stroke-opacity="1" stroke-width="8.5" d=" M-41.09299850463867,86.427001953125 C-117.89399719238281,-23.888999938964844 -33.79899978637695,-109.08399963378906 -12.876999855041504,-103.32099914550781 C5.053999900817871,-98.38200378417969 110.32755279541016,-33.668174743652344 55.18055725097656,114.0968246459961"></path></g><g opacity="1" transform="matrix(0.9989708065986633,0.04535787180066109,-0.04535787180066109,0.9989708065986633,347.54705810546875,131.20774841308594)"><path fill="rgb(255,179,253)" fill-opacity="1" d=" M37.026451110839844,-5.670093059539795 C27.14044952392578,-36.46709442138672 -3.9571800231933594,-80.16322326660156 -20.661550521850586,-75.96609497070312 C-36.61705780029297,-72.04295349121094 -43.358551025390625,-25.822093963623047 -32.45854949951172,13.120906829833984 C-21.558549880981445,52.06346893310547 4.773449420928955,77.94290924072266 23.490449905395508,73.85791015625 C38.15544891357422,70.65690612792969 49.71244812011719,33.84790802001953 37.026451110839844,-5.670093059539795z"></path></g></g><g transform="matrix(0.848863422870636,-0.017297405749559402,0.02235862798988819,0.919715166091919,1.0686354637145996,13.610991477966309)" opacity="1" style="display: block;"><g opacity="1" transform="matrix(1,0,0,1,172.2100067138672,161.1199951171875)"><path fill="rgb(110,184,234)" fill-opacity="1" d=" M85.96700286865234,52.189998626708984 C73.43299865722656,-94.1719970703125 -51.60499954223633,-111.83599853515625 -68.36699676513672,-98.05400085449219 C-82.73300170898438,-86.24199676513672 -108.96986389160156,49.22561264038086 -7.193863868713379,111.65460968017578"></path><path stroke-linecap="round" stroke-linejoin="round" fill-opacity="0" stroke="rgb(42,54,58)" stroke-opacity="1" stroke-width="8.5" d=" M85.96700286865234,52.189998626708984 C73.43299865722656,-94.1719970703125 -51.60499954223633,-111.83599853515625 -68.36699676513672,-98.05400085449219 C-82.73300170898438,-86.24199676513672 -108.96986389160156,49.22561264038086 -7.193863868713379,111.65460968017578"></path></g><g opacity="1" transform="matrix(0.9785090088844299,0.20620419085025787,-0.20620419085025787,0.9785090088844299,173.97679138183594,159.88172912597656)"><path fill="rgb(255,179,253)" fill-opacity="1" d=" M-25.108295440673828,23.029300689697266 C-43.29229736328125,-3.720136880874634 -57.66486358642578,-55.43484115600586 -44.991859436035156,-65.70669555664062 C-31.715299606323242,-76.3746566772461 8.4967041015625,-52.723697662353516 32.475704193115234,-20.16069984436035 C56.45470428466797,12.402300834655762 60.63914108276367,49.08530044555664 45.89714050292969,61.3203010559082 C34.34714126586914,70.90630340576172 -1.7752960920333862,57.35430145263672 -25.108295440673828,23.029300689697266z"></path></g></g><g transform="matrix(0.8425648808479309,-0.08653701096773148,0.04171812906861305,0.9969258904457092,-0.9971250295639038,19.923133850097656)" opacity="1" style="display: block;"><g opacity="1" transform="matrix(1,0,0,1,0,0)"><g opacity="1" transform="matrix(1,0,0,1,304.8919982910156,296.4150085449219)"><path fill="rgb(239,92,67)" fill-opacity="1" d=" M-0.5109941363334656,-50.09197998046875 C19.216463088989258,-42.61606216430664 27.276506423950195,-47.19679260253906 27.276506423950195,-47.19679260253906 C32.45677185058594,-30.373676300048828 35.6839714050293,1.3825310468673706 26.059024810791016,24.777395248413086 C20.227449417114258,39.266990661621094 9.369559288024902,43.94753646850586 -1.2305970191955566,43.41917037963867 C-14.11931037902832,42.77646255493164 -26.107685089111328,34.281558990478516 -29.551223754882812,20.52511978149414 C-34.34210205078125,1.3876761198043823 -32.82778549194336,-17.799728393554688 -28.99215316772461,-46.0240592956543 C-28.99215316772461,-46.0240592956543 -16.336009979248047,-38.04643630981445 -0.5109941363334656,-50.09197998046875z"></path></g><g opacity="1" transform="matrix(1,0,0,1,304.8919982910156,298.4620056152344)"><path stroke-linecap="round" stroke-linejoin="round" fill-opacity="0" stroke="rgb(42,54,58)" stroke-opacity="1" stroke-width="8.5" d=" M27.276506423950195,-49.24378967285156 C32.42201614379883,-32.409263610839844 35.786415100097656,-0.552426278591156 26.059024810791016,22.73039436340332 C20.108922958374023,37.125587463378906 8.662899017333984,44.52124786376953 -1.9372575283050537,43.99288558959961 C-14.825970649719238,43.35017776489258 -25.35062026977539,34.30579376220703 -29.551223754882812,18.478118896484375 C-34.73399353027344,-1.2732243537902832 -32.831417083740234,-19.8798885345459 -28.99215316772461,-48.072059631347656"></path></g></g><g opacity="1" transform="matrix(1,0,0,1,293.60101318359375,274.4859924316406)"><path fill="rgb(255,255,255)" fill-opacity="1" d=" M5.682000160217285,-21.857999801635742 C5.867000102996826,-4.377999782562256 5.314000129699707,22.304000854492188 5.314000129699707,22.304000854492188 C5.314000129699707,22.304000854492188 -3.9630000591278076,-6.735000133514404 -5.71999979019165,-22.304000854492188 C-2.4609999656677246,-21.996999740600586 1.3459999561309814,-21.80699920654297 5.682000160217285,-21.857999801635742z"></path></g><g opacity="1" transform="matrix(1,0,0,1,313.8590087890625,272.1000061035156)"><path fill="rgb(255,255,255)" fill-opacity="1" d=" M6.473999977111816,-22.695999145507812 C4.047999858856201,-5.98799991607666 -0.03799999877810478,22.71500015258789 -0.03799999877810478,22.71500015258789 C-0.03799999877810478,22.71500015258789 -3.7160000801086426,4.4730000495910645 -6.47599983215332,-20.020999908447266 C-6.47599983215332,-20.020999908447266 -6.4730000495910645,-20.038000106811523 -6.4730000495910645,-20.038000106811523 C-2.4140000343322754,-20.70599937438965 1.9040000438690186,-21.583999633789062 6.47599983215332,-22.71500015258789 C6.474999904632568,-22.70800018310547 6.474999904632568,-22.702999114990234 6.473999977111816,-22.695999145507812z"></path></g><g opacity="1" transform="matrix(1,0,0,1,302.84698486328125,244.47999572753906)"><path stroke-linecap="round" stroke-linejoin="round" fill-opacity="0" stroke="rgb(42,54,58)" stroke-opacity="1" stroke-width="8.5" d=" M39.681819915771484,-4.595545768737793 C39.681819915771484,-4.595545768737793 30.73900032043457,16.079999923706055 0.5870000123977661,1.069000005722046 C-24.298215866088867,19.386972427368164 -38.52067184448242,-4.893316268920898 -38.52067184448242,-4.893316268920898"></path></g><g opacity="1" transform="matrix(1,0,0,1,0,0)"><g opacity="1" transform="matrix(1,0,0,1,302.84698486328125,244.47999572753906)"><path stroke-linecap="round" stroke-linejoin="round" fill-opacity="0" stroke="rgb(42,54,58)" stroke-opacity="1" stroke-width="8.5" d="M0 0"></path></g><g opacity="1" transform="matrix(1,0,0,1,302.84698486328125,244.47999572753906)"><path stroke-linecap="round" stroke-linejoin="round" fill-opacity="0" stroke="rgb(42,54,58)" stroke-opacity="1" stroke-width="8.5" d="M0 0"></path></g></g></g><g transform="matrix(0.8425648808479309,-0.08653701096773148,0.04171812906861305,0.9969258904457092,-0.9975461363792419,19.92445182800293)" opacity="1" style="display: block;"><g opacity="1" transform="matrix(0.7890889048576355,0,0,0.7890889048576355,294.55499267578125,229.6840057373047)"><path fill="rgb(42,54,58)" fill-opacity="1" d=" M-2.86899995803833,-6.1519999504089355 C-7.644999980926514,-4.071000099182129 -1.8259999752044678,7.991000175476074 2.6519999504089355,6.382999897003174 C7.130000114440918,4.775000095367432 3.5820000171661377,-8.963000297546387 -2.86899995803833,-6.1519999504089355z"></path></g><g opacity="1" transform="matrix(0.7890889048576355,0,0,0.7890889048576355,310.2879943847656,228.50399780273438)"><path fill="rgb(42,54,58)" fill-opacity="1" d=" M-2.242000102996826,6.593999862670898 C-6.624000072479248,5.166999816894531 -4.6620001792907715,-7.730999946594238 1.6100000143051147,-6.688000202178955 C7.881999969482422,-5.644999980926514 3.177000045776367,8.357999801635742 -2.242000102996826,6.593999862670898z"></path></g></g><g transform="matrix(0.8425648808479309,-0.08653701096773148,0.04171812906861305,0.9969258904457092,-0.9975742697715759,19.92265510559082)" opacity="1" style="display: block;"><g opacity="1" transform="matrix(1,0,0,1,228.7519989013672,248.75399780273438)"><path stroke-linecap="round" stroke-linejoin="round" fill-opacity="0" stroke="rgb(42,54,58)" stroke-opacity="1" stroke-width="8.5" d=" M14.826869010925293,-9.049811363220215 C-10.225131034851074,-14.24281120300293 -19.52419662475586,0.21912352740764618 -19.52419662475586,0.21912352740764618"></path></g><g opacity="1" transform="matrix(1,0,0,1,215.98500061035156,246.0570068359375)"><path stroke-linecap="round" stroke-linejoin="round" fill-opacity="0" stroke="rgb(42,54,58)" stroke-opacity="1" stroke-width="8.5" d=" M28.67099952697754,-6.50600004196167 C-4.163000106811523,-18.259000778198242 -28.67099952697754,9.413999557495117 -28.67099952697754,9.413999557495117"></path></g><g opacity="1" transform="matrix(1,0,0,1,391.4840087890625,237.41200256347656)"><path stroke-linecap="round" stroke-linejoin="round" fill-opacity="0" stroke="rgb(42,54,58)" stroke-opacity="1" stroke-width="8.5" d=" M-31.82699966430664,0.9179999828338623 C-4.209000110626221,-16.527000427246094 30.954498291015625,5.603450298309326 30.954498291015625,5.603450298309326"></path></g><g opacity="1" transform="matrix(1,0,0,1,383.7300109863281,243.08900451660156)"><path stroke-linecap="round" stroke-linejoin="round" fill-opacity="0" stroke="rgb(42,54,58)" stroke-opacity="1" stroke-width="8.5" d=" M-23.20690155029297,-4.875319957733154 C3.452099323272705,-13.173319816589355 16.972164154052734,-1.4123197793960571 16.972164154052734,-1.4123197793960571"></path></g></g><g transform="matrix(0.8265659809112549,-0.3139115869998932,0.2840152680873871,0.9135728478431702,-90.72545623779297,106.79906463623047)" opacity="1" style="display: block;"><g opacity="1" transform="matrix(1,0,0,1,285.5469970703125,430.114013671875)"><path fill="rgb(110,184,234)" fill-opacity="1" d=" M-79.71293640136719,-37.21635818481445 C-44.741939544677734,-41.3803596496582 -10.095304489135742,-74.6053695678711 4.8766961097717285,-69.11436462402344 C24.09769630432129,-62.06436538696289 73.03981018066406,18.488250732421875 64.2668228149414,81.14900970458984 C49.19211959838867,55.59358596801758 0.32938745617866516,28.81651496887207 -2.165241241455078,76.16039276123047 C-0.20559994876384735,34.356285095214844 -28.979175567626953,13.905916213989258 -59.82117462158203,47.78791427612305 C-50.28746795654297,13.504915237426758 -49.97093963623047,-6.26235818862915 -81.5139389038086,-14.521358489990234"></path><path stroke-linecap="round" stroke-linejoin="round" fill-opacity="0" stroke="rgb(42,54,58)" stroke-opacity="1" stroke-width="8.5" d=" M-79.71293640136719,-37.21635818481445 C-44.741939544677734,-41.3803596496582 -10.095304489135742,-74.6053695678711 4.8766961097717285,-69.11436462402344 C24.09769630432129,-62.06436538696289 73.03981018066406,18.488250732421875 64.2668228149414,81.14900970458984 C49.19211959838867,55.59358596801758 0.32938745617866516,28.81651496887207 -2.165241241455078,76.16039276123047 C-0.20559994876384735,34.356285095214844 -28.979175567626953,13.905916213989258 -59.82117462158203,47.78791427612305 C-50.28746795654297,13.504915237426758 -49.97093963623047,-6.26235818862915 -81.5139389038086,-14.521358489990234"></path></g><g opacity="1" transform="matrix(1,0,0,1,290.4469909667969,419.3070068359375)"><path stroke-linecap="round" stroke-linejoin="round" fill-opacity="0" stroke="rgb(73,140,191)" stroke-opacity="1" stroke-width="8.5" d=" M-14.3991060256958,-43.18726348876953 C2.221893787384033,-6.804262161254883 17.165061950683594,57.772640228271484 17.165061950683594,57.772640228271484"></path></g><g opacity="1" transform="matrix(1,0,0,1,256.6310119628906,408.7279968261719)"><path stroke-linecap="round" stroke-linejoin="round" fill-opacity="0" stroke="rgb(73,140,191)" stroke-opacity="1" stroke-width="8.5" d=" M6.685893535614014,-25.6192626953125 C1.5438936948776245,-1.3742622137069702 -3.919938564300537,40.20464324951172 -3.919938564300537,40.20464324951172"></path></g></g><g transform="matrix(0.8738126158714294,0.020001472905278206,-0.018096571788191795,0.9657928943634033,21.107975006103516,-3.5989439487457275)" opacity="1" style="display: block;"><g opacity="1" transform="matrix(1,0,0,1,298.2279968261719,407.66900634765625)"><path fill="rgb(110,184,234)" fill-opacity="1" d=" M74.06999969482422,6.081999778747559 C57.14500045776367,-45.39400100708008 76.052001953125,-76.87699890136719 64.16300201416016,-79.0250015258789 C49.52899932861328,-81.66899871826172 14.225258827209473,-63.341121673583984 -85.46273803710938,-32.59712219238281 C-31.444740295410156,-39.7861213684082 -36.63401412963867,27.680078506469727 -51.132789611816406,58.9923095703125 C-29.629789352416992,33.439308166503906 18.444252014160156,59.58876037597656 30.746252059936523,84.48175811767578 C28.518253326416016,57.14575958251953 48.465999603271484,23.429000854492188 64.00499725341797,25.148000717163086"></path><path stroke-linecap="round" stroke-linejoin="round" fill-opacity="0" stroke="rgb(42,54,58)" stroke-opacity="1" stroke-width="8.5" d=" M74.06999969482422,6.081999778747559 C57.14500045776367,-45.39400100708008 76.052001953125,-76.87699890136719 64.16300201416016,-79.0250015258789 C49.52899932861328,-81.66899871826172 14.225258827209473,-63.341121673583984 -85.46273803710938,-32.59712219238281 C-31.444740295410156,-39.7861213684082 -36.63401412963867,27.680078506469727 -51.132789611816406,58.9923095703125 C-29.629789352416992,33.439308166503906 18.444252014160156,59.58876037597656 30.746252059936523,84.48175811767578 C28.518253326416016,57.14575958251953 48.465999603271484,23.429000854492188 64.00499725341797,25.148000717163086"></path></g><g opacity="1" transform="matrix(1,0,0,1,340.6570129394531,404.65399169921875)"><path stroke-linecap="round" stroke-linejoin="round" fill-opacity="0" stroke="rgb(73,140,191)" stroke-opacity="1" stroke-width="8.5" d=" M11.074999809265137,-43.74300003051758 C-12.495231628417969,-2.598543643951416 -22.28717803955078,43.39176940917969 -22.28717803955078,43.39176940917969"></path></g><g opacity="1" transform="matrix(1,0,0,1,314.17999267578125,410.9049987792969)"><path stroke-linecap="round" stroke-linejoin="round" fill-opacity="0" stroke="rgb(73,140,191)" stroke-opacity="1" stroke-width="8.5" d=" M20.1484375,-50.2803955078125 C2.5474369525909424,-10.045393943786621 -43.01142120361328,21.927160263061523 -43.01142120361328,21.927160263061523"></path></g></g><g transform="matrix(0.7637155652046204,-0.6455528736114502,0.6455528736114502,0.7637155652046204,48.473114013671875,242.92308044433594)" opacity="1" style="display: block;"><g opacity="1" transform="matrix(1,0,0,1,0,0)"><path fill="rgb(182,255,255)" fill-opacity="1" d=" M5.938000202178955,9.020000457763672 C-8.527999877929688,8.817000389099121 -10.166000366210938,2.069999933242798 -8.977999687194824,-2.5789999961853027 C-7.932000160217285,-6.673999786376953 -2.9739999771118164,-12.598999977111816 9.289999961853027,-6.197999954223633"></path><path stroke-linecap="round" stroke-linejoin="round" fill-opacity="0" stroke="rgb(82,209,239)" stroke-opacity="1" stroke-width="8.5" d=" M5.938000202178955,9.020000457763672 C-8.527999877929688,8.817000389099121 -10.166000366210938,2.069999933242798 -8.977999687194824,-2.5789999961853027 C-7.932000160217285,-6.673999786376953 -2.9739999771118164,-12.598999977111816 9.289999961853027,-6.197999954223633"></path></g></g><g transform="matrix(0.9793315529823303,-0.20226140320301056,0.20226140320301056,0.9793315529823303,141.78822326660156,252.32896423339844)" opacity="1" style="display: block;"><g opacity="1" transform="matrix(1,0,0,1,0,0)"><path fill="rgb(182,255,255)" fill-opacity="1" d=" M5.938000202178955,9.020000457763672 C-8.527999877929688,8.817000389099121 -10.166000366210938,2.069999933242798 -8.977999687194824,-2.5789999961853027 C-7.932000160217285,-6.673999786376953 -2.9739999771118164,-12.598999977111816 9.289999961853027,-6.197999954223633"></path><path stroke-linecap="round" stroke-linejoin="round" fill-opacity="0" stroke="rgb(82,209,239)" stroke-opacity="1" stroke-width="8.5" d=" M5.938000202178955,9.020000457763672 C-8.527999877929688,8.817000389099121 -10.166000366210938,2.069999933242798 -8.977999687194824,-2.5789999961853027 C-7.932000160217285,-6.673999786376953 -2.9739999771118164,-12.598999977111816 9.289999961853027,-6.197999954223633"></path></g></g><g transform="matrix(-0.9802218675613403,-0.19790175557136536,-0.19790175557136536,0.9802218675613403,404.9970703125,197.25782775878906)" opacity="1" style="display: block;"><g opacity="1" transform="matrix(1,0,0,1,0,0)"><path fill="rgb(182,255,255)" fill-opacity="1" d=" M5.938000202178955,9.020000457763672 C-8.527999877929688,8.817000389099121 -10.166000366210938,2.069999933242798 -8.977999687194824,-2.5789999961853027 C-7.932000160217285,-6.673999786376953 -2.9739999771118164,-12.598999977111816 9.289999961853027,-6.197999954223633"></path><path stroke-linecap="round" stroke-linejoin="round" fill-opacity="0" stroke="rgb(82,209,239)" stroke-opacity="1" stroke-width="8.5" d=" M5.938000202178955,9.020000457763672 C-8.527999877929688,8.817000389099121 -10.166000366210938,2.069999933242798 -8.977999687194824,-2.5789999961853027 C-7.932000160217285,-6.673999786376953 -2.9739999771118164,-12.598999977111816 9.289999961853027,-6.197999954223633"></path></g></g><g transform="matrix(-0.9504740238189697,0.3108040392398834,0.3108040392398834,0.9504740238189697,322.7056579589844,285.7110900878906)" opacity="1" style="display: block;"><g opacity="1" transform="matrix(1,0,0,1,0,0)"><path fill="rgb(182,255,255)" fill-opacity="1" d=" M5.938000202178955,9.020000457763672 C-8.527999877929688,8.817000389099121 -10.166000366210938,2.069999933242798 -8.977999687194824,-2.5789999961853027 C-7.932000160217285,-6.673999786376953 -2.9739999771118164,-12.598999977111816 9.289999961853027,-6.197999954223633"></path><path stroke-linecap="round" stroke-linejoin="round" fill-opacity="0" stroke="rgb(82,209,239)" stroke-opacity="1" stroke-width="8.5" d=" M5.938000202178955,9.020000457763672 C-8.527999877929688,8.817000389099121 -10.166000366210938,2.069999933242798 -8.977999687194824,-2.5789999961853027 C-7.932000160217285,-6.673999786376953 -2.9739999771118164,-12.598999977111816 9.289999961853027,-6.197999954223633"></path></g></g><g transform="matrix(-0.9189766049385071,-0.3943120837211609,-0.3943120837211609,0.9189766049385071,450.83978271484375,232.28448486328125)" opacity="1" style="display: block;"><g opacity="1" transform="matrix(1,0,0,1,0,0)"><path fill="rgb(182,255,255)" fill-opacity="1" d=" M5.938000202178955,9.020000457763672 C-8.527999877929688,8.817000389099121 -10.166000366210938,2.069999933242798 -8.977999687194824,-2.5789999961853027 C-7.932000160217285,-6.673999786376953 -2.9739999771118164,-12.598999977111816 9.289999961853027,-6.197999954223633"></path><path stroke-linecap="round" stroke-linejoin="round" fill-opacity="0" stroke="rgb(82,209,239)" stroke-opacity="1" stroke-width="8.5" d=" M5.938000202178955,9.020000457763672 C-8.527999877929688,8.817000389099121 -10.166000366210938,2.069999933242798 -8.977999687194824,-2.5789999961853027 C-7.932000160217285,-6.673999786376953 -2.9739999771118164,-12.598999977111816 9.289999961853027,-6.197999954223633"></path></g></g></g></g></svg>