<svg xmlns="http://www.w3.org/2000/svg" width="512" height="512" style="fill:none;stroke:none"><g><g><g style="fill-opacity:1;fill:#fff;fill-rule:nonzero;stroke:#454849;stroke-opacity:1;stroke-width:3;stroke-linecap:round;stroke-linejoin:round"><path d="M-8.815-79.983C-4.061-64.506 6.42-37.77 17.899-9.161 29.33 20.516-2.671 27.016-8.495 5.228c-11.992-32.485-20.977-60.16-21.922-63.392-3.505-12-14.003-31.514 4.622-34.711 12.786-2.195 15.585 8.355 16.98 12.892z" style="fill-opacity:1;fill:#fff;fill-rule:nonzero" transform="rotate(1 -18157.567 16518.883) scale(.9)"/></g><g><g style="fill-opacity:1;fill:#d3ded7;fill-rule:nonzero;stroke:#454849;stroke-opacity:1;stroke-width:3;stroke-miterlimit:10;stroke-linecap:butt;stroke-linejoin:miter"><path d="M13.895-3.076c.661 2.989-5.023 6.789-12.697 8.487-7.674 1.699-14.431.653-15.093-2.336-.661-2.988 5.024-6.789 12.698-8.487 7.674-1.698 14.431-.652 15.092 2.336z" style="fill-opacity:1;fill:#d3ded7;fill-rule:nonzero" transform="rotate(1 -9830.246 14245.173) scale(.9)"/></g><g style="fill-opacity:1;fill:#a1d9db;fill-rule:nonzero;stroke:#324343;stroke-opacity:1;stroke-width:3;stroke-miterlimit:10;stroke-linecap:butt;stroke-linejoin:miter"><path d="m-10.74-12.781 5.815 34.023 16.915-3.656-5.946-33.328-16.784 2.961z" style="fill-opacity:1;fill:#a1d9db;fill-rule:nonzero" transform="rotate(1 -9937.865 14386.409) scale(.9)"/></g><g style="fill-opacity:1;fill:#fff;fill-rule:nonzero;stroke:#454849;stroke-opacity:1;stroke-width:3;stroke-linecap:round;stroke-linejoin:round"><path d="M24.069 33.976C17.984 16.631 12.545-8.938 1.717-48.405c.156 1.873-3.621 4.755-11.712 6.546-7.557 1.672-14.069 1.779-15.426.35C-18.396-20.675-8.16 21.372-3.368 37.762c1.761 6.026 8.244 10.643 18.244 8.693 5.177-1.01 10.545-8.624 9.193-12.479z" style="fill-opacity:1;fill:#fff;fill-rule:nonzero" transform="rotate(1 -12196.265 14840.927) scale(.9)"/></g><g><g style="fill-opacity:1;fill:#dbcdc4;fill-rule:nonzero;stroke:#41362e;stroke-opacity:1;stroke-width:3;stroke-linecap:round;stroke-linejoin:round"><path d="M11.538 10.373c-.069-16.821-2.295-36.209-7.623-36.169-5.024.038.946 14.84-.573 25.493.889-10.454-2.72-20.139-1.563-24.155-.367-1.856-1.858-3.023-2.838-2.88-5.287.773.849 13.526-.466 27.485.402-9.501-.915-23.952-3.983-23.575-4.065.498-.137 12.06-.314 24.707.101-7.198-1.84-11.531-1.802-19.783-4.171.319-.944 10.367-1.246 20.103-.364 17.121.731 25.881 11.408 25.162 9.256-.624 9-16.388 9-16.388z" style="fill-opacity:1;fill:#dbcdc4;fill-rule:nonzero" transform="rotate(1 -8267.998 14171.81) scale(.9)"/></g><g style="fill-opacity:1;fill:#dbcdc4;fill-rule:nonzero;stroke:#41362e;stroke-opacity:1;stroke-width:3;stroke-linecap:round;stroke-linejoin:round"><path d="M-4.014-1.675S.824-15.257 4.569-13.678c3.744 1.579-.762 11.402-2.318 17.4-1.092 4.21-3.47 10.527-10.565 11.535" style="fill-opacity:1;fill:#dbcdc4;fill-rule:nonzero" transform="rotate(1 -8866.085 14726.267) scale(.9)"/></g></g></g><g><path d="M25.25-54.125C21.375-67.75-2.375-65.125 3-46.5c6 20.25 7.25 21.875 7.25 21.875l22.125-8.25s-1.25-3.75-7.125-21.25z" style="fill-opacity:1;fill:#fff;fill-rule:nonzero" transform="rotate(1 -16646.283 14615.207) scale(.9)"/></g></g><path d="M3.224-65.232C-6.186-31.99-17.97 14.667-26.151 75.143a306.774 306.774 0 0 0 9.718 4.019c1.55-15.248 9.352-74.622 42.584-158.324-11.504 1.555-20.705 6.083-22.927 13.93z" style="fill-opacity:1;fill:#fff;fill-rule:nonzero" transform="rotate(-2 10770.516 -7905.938) scale(.9)"/><path d="M19.636-72.991c-2.692-4.039-6.951-7.445-12.133-10.173C-6.179-59.065-31.787 6.863-33.136 80.399c13.405 1.959 28.488 2.765 45.147 1.443 0 0 21.125-134.583 7.625-154.833z" style="fill-opacity:1;fill:#fff;fill-rule:nonzero" transform="rotate(-2 11032.39 -9537.444) scale(.9)"/><path d="M-.928-84.448C-34.159-.746-41.962 58.629-43.512 73.876c11.888 4.662 27.457 9.73 46.385 12.496C4.222 12.837 29.83-53.093 43.512-77.191c-12.439-6.549-30.203-9.181-44.44-7.257z" style="fill-opacity:1;fill:#a3d9dc;fill-rule:nonzero" transform="rotate(-2 10894.606 -8606.427) scale(.9)"/><g style="stroke:#454849;stroke-opacity:1;stroke-width:3;stroke-linecap:round;stroke-linejoin:round"><path d="M-16.433 79.161c1.55-15.247 9.353-74.62 42.584-158.322-11.504 1.554-20.705 6.083-22.927 13.929-9.41 33.243-21.194 79.9-29.375 140.375" transform="rotate(-2 10770.516 -7905.938) scale(.9)"/></g><g style="stroke:#454849;stroke-opacity:1;stroke-width:3;stroke-linecap:round;stroke-linejoin:round"><path d="M12.011 82.503S33.136-52.08 19.636-72.33c-2.692-4.039-6.951-7.445-12.133-10.173C-6.179-58.404-31.787 7.524-33.136 81.06" transform="rotate(-2 11015.348 -9537.147) scale(.9)"/></g><path d="M21.542-74.66S-4.746-35.343-7.913-25.843c0 0 6.192 7.531 7.317 11.968-3 2.938-8.852 9.201-16.852 15.139-1.021 8.104-4.094 46.5-3.719 71.125l5.374 2.271L2.708-14.486 21.542-74.66z" style="fill-opacity:1;fill:#fff;fill-rule:nonzero" transform="rotate(-2 10843.784 -7778.688) scale(.9)"/><g style="stroke:#454849;stroke-opacity:1;stroke-width:3;stroke-linecap:round;stroke-linejoin:round"><path d="M21.542-73.524S-4.746-34.208-7.913-24.708c0 0 6.192 7.531 7.317 11.968-3 2.938-8.852 9.201-16.852 15.139-1.021 8.104-4.094 46.5-3.719 71.125" transform="rotate(-2 10814.523 -7778.177) scale(.9)"/></g><path d="M-.097-10.322C-1.737-6.675-3.74-1.453-4.999 4.822c0 0-.167 3.084 3.25 5.5 0 0 3.165-10.75 6.915-17.583C1.277-5.483.18-8.71-.097-10.322z" style="fill-opacity:1;fill:#fff;fill-rule:nonzero" transform="rotate(-2 9210.495 -7940.368) scale(.9)"/><g><path d="M-23.317-73.688c14.125-1.625 18 3.25 22.5 18 0 0 23.501 73.014 33 114.751-4.5 8.5-25.25 16.25-25.25 16.25-11.195-46.574-33-101.251-34.75-122.751-.685-8.406-4.365-25.23 4.5-26.25z" style="fill-opacity:1;fill:#fff;fill-rule:nonzero" transform="rotate(-2 10975.386 -10508.72) scale(.9)"/><g style="stroke:#454849;stroke-opacity:1;stroke-width:3;stroke-linecap:round;stroke-linejoin:round"><path d="M6.933 75.313C-2.805 33.44-22.825-24.383-27.817-47.438c-1.785-8.242-4.365-25.23 4.5-26.25 14.125-1.625 18 3.25 22.5 18 0 0 18.582 60.751 33 114.751" transform="rotate(-2 10975.386 -10508.72) scale(.9)"/></g><path d="m13.504 10.708-7.778 5.556-5.833 33.333 28.889-3.611-15.278-35.278z" style="fill-opacity:1;fill:#fff;fill-rule:nonzero" transform="rotate(-2 8858.284 -9448.434) scale(.9)"/></g><g><g style="fill-opacity:1;fill:#fff;fill-rule:nonzero;stroke:#454849;stroke-opacity:1;stroke-width:3;stroke-linecap:round;stroke-linejoin:round"><path d="M15.292-62.833s-.959 35.292-.584 46.667c-5.625 5-13.042 9.375-17.125 11.75 3.083 3.833 11 10.75 11.125 16-.911 3.477-24 51.249-24 51.249" style="fill-opacity:1;fill:#fff;fill-rule:nonzero" transform="rotate(-2 10963.78 -9295.847) scale(.9)"/></g></g><g><g style="fill-opacity:1;fill:#b4d9ec;fill-rule:nonzero;stroke:#2b3f48;stroke-opacity:1;stroke-width:3;stroke-linecap:round;stroke-linejoin:round"><path d="M-77.5 64S-98.75 50.375-106 31.875c10-3.706 34.625-18.75 34.625-18.75s-28-11.25-34.625-43.5c13.25 3.625 28.875 5.25 28.875 5.25s-16.917-24.458 9.75-73.375C-58-81.875-39.75-76.125-38-76.75c.75-8.125 16.625-39.625 34.5-53.875.125 15.875 8.125 34.125 18 42.375 8.375-8.167 43.208-22.667 51.708-23.667 1 15 1.334 39.167-4.333 62.5C73.125-46.75 86.25-38.625 99-31.25c-2.75 6-11.5 21.125-16.625 26.75C87.125.125 101.625 18.875 106 24.75c-4.125 7.125-18.75 23.625-27.625 31.5C85.375 63.375 97.25 78 103 87.875c-23.625 6-42 7.25-42 7.25S64 106.5 69.875 115c-16.375 0-25.75-6.125-36.375-5 .125 7.5 1 16.5.875 20.625C18.375 129 14.75 119-3.25 112.25S-77.5 64-77.5 64z" style="fill-opacity:1;fill:#b4d9ec;fill-rule:nonzero" transform="rotate(-6 2087.82 -3287.319) scale(.9)"/></g><g style="fill-opacity:1;fill:#dbcdc4;fill-rule:nonzero;stroke:#41362e;stroke-opacity:1;stroke-width:3;stroke-linecap:round;stroke-linejoin:round"><path d="M63.318-42.625c3.365 35.018-8 61.632-23 95.099C15.901 102.792-60.1 89.792-64.35 33.912c-2.333-31.704 2.261-69.119 21.485-99.88C-19.85-102.792 58.318-94.646 63.318-42.625z" style="fill-opacity:1;fill:#dbcdc4;fill-rule:nonzero" transform="rotate(-6 2447.834 -3105.777) scale(.9)"/></g><g style="fill-opacity:1;fill:#dbcdc4;fill-rule:nonzero;stroke:#41362e;stroke-opacity:1;stroke-width:3;stroke-linecap:round;stroke-linejoin:round"><path d="M-4.75-22.471c24.5 5.059 16.75 44.941-15 34.802" style="fill-opacity:1;fill:#dbcdc4;fill-rule:nonzero" transform="rotate(-6 2747.316 -3604.938) scale(.9)"/></g><g style="stroke:#41362e;stroke-opacity:1;stroke-width:3;stroke-linecap:round;stroke-linejoin:round"><path d="M10.625-22.417c-24.5 22.167-15 44.834 3.25 19.084" transform="rotate(-6 2569.792 -2798.124) scale(.9)"/></g><g style="stroke:#2b3f48;stroke-opacity:1;stroke-width:3;stroke-linecap:round;stroke-linejoin:round"><path d="M-.813 5.125c0-2.813 1.626-10.25 1.626-10.25" transform="rotate(-6 1490.276 -2921.828) scale(.9)"/></g><g style="stroke:#2b3f48;stroke-opacity:1;stroke-width:3;stroke-linecap:round;stroke-linejoin:round"><path d="M-3.938 3.25c5-4.812 7.876-6.5 7.876-6.5" transform="rotate(-6 1353.213 -3339.768) scale(.9)"/></g><g><g style="fill-opacity:1;fill:#b4d9ec;fill-rule:nonzero;stroke:#2b3f48;stroke-opacity:1;stroke-width:3;stroke-linecap:round;stroke-linejoin:round"><path d="M-31.102-17.748c-9.32.848-10.279 11.348-3.086 10.667 14.086-1.334 25.776.975 33.503 3.166 8.127 2.306 19.167 7.584 29.625 16.25 7.848 6.504 12.441-2.649 6.125-9.625-9.007-9.945-18.849-14.348-31.417-17.875-9.072-2.545-22.754-3.674-34.75-2.583z" style="fill-opacity:1;fill:#b4d9ec;fill-rule:nonzero" transform="rotate(-6 1965.093 -3035.103) scale(.9)"/></g></g><g><path d="M-23.188-17.201c12.875 7.125 19.336 8.362 34.626 4.75 15.875-3.75 27.875 28.25 1.875 33.5-18.118 3.401-31.172-.125-42.251-10.937-10.375-10.125-5.375-34.563 5.75-27.313z" style="fill-opacity:1;fill:#701833;fill-rule:nonzero" transform="rotate(-6 2795.77 -2913.831) scale(.9)"/><g style="fill-opacity:1;fill:#ba3e68;fill-rule:nonzero;stroke:#4f0b23;stroke-opacity:1;stroke-width:3;stroke-miterlimit:10;stroke-linecap:butt;stroke-linejoin:miter"><path d="M2.197 13.361C.213-3.285-13.725-.032-11.228-6.771c2.496-6.741 24.953 3.759 23.63 17.736-4.617 2.548-10.205 2.396-10.205 2.396z" style="fill-opacity:1;fill:#ba3e68;fill-rule:nonzero" transform="rotate(-6 2863.84 -2960.69) scale(.9)"/></g><g style="fill-opacity:1;fill:#dddbba;fill-rule:nonzero;stroke:#757472;stroke-opacity:1;stroke-width:2.5;stroke-linecap:round;stroke-linejoin:round"><path d="M-19.944-1.688c1.5-6.333 9.166-5.667 8.646 4.527C-9.343-6.525.196-5.607-.992 5.774.753-3.959 9.222-5.355 9.22 6.919c.711-10.698 9.835-14.19 10.724-.959C7.714 8.021-7.924 7.846-19.944-1.688z" style="fill-opacity:1;fill:#dddbba;fill-rule:nonzero" transform="rotate(-6 2925.053 -2881.913) scale(.9)"/></g><g style="fill-opacity:1;fill:#dddbba;fill-rule:nonzero;stroke:#757472;stroke-opacity:1;stroke-width:2.5;stroke-linecap:round;stroke-linejoin:round"><path d="M-18.791-8.875c-2.417 10.25 7.749 14.833 9.863 4.696C-10.542 6.958.126 6.792.459-2.042c.5 10.917 10.25 8.917 9.875-.5.375 9.875 10.875 9.5 9.625-1.75-1.998-.029-4.914.621-9.875 1.375C-2.81-.818-13.194-6.237-18.791-8.875z" style="fill-opacity:1;fill:#dddbba;fill-rule:nonzero" transform="rotate(-6 2725.658 -2870.145) scale(.9)"/></g><g style="stroke:#41362e;stroke-opacity:1;stroke-width:3;stroke-linecap:round;stroke-linejoin:round"><path d="M-5.938-17.25c9.875 8 11.875 22 1 34.5" transform="rotate(-6 2813.653 -3196.749) scale(.9)"/></g><g style="stroke:#3f1111;stroke-opacity:1;stroke-width:3;stroke-linecap:round;stroke-linejoin:round"><path d="M-23.188-17.201c12.875 7.125 19.336 8.362 34.626 4.75 15.875-3.75 27.875 28.25 1.875 33.5-18.118 3.401-31.172-.125-42.251-10.937-10.375-10.125-5.375-34.563 5.75-27.313z" transform="rotate(-6 2795.77 -2913.831) scale(.9)"/></g></g><g><path d="M21.26-9.998c3.574 12.35-1.594 24.269-11.199 30.368-10.875 6.903-26.138 2.741-30.62-9.335-4.275-11.517.225-24.349 11.198-31.368C1.49-27.274 17.679-22.372 21.26-9.998z" style="fill-opacity:1;fill:#fff;fill-rule:nonzero" transform="rotate(-6 2237.737 -2710.033) scale(.9)"/></g><g><path d="M20.909-10.517C26.755.962 22.188 15.006 10.711 20.852c-11.479 5.846-25.775 1.143-31.62-10.335-5.846-11.478-1.28-25.522 10.198-31.367 11.478-5.847 25.774-1.145 31.62 10.333z" style="fill-opacity:1;fill:#fff;fill-rule:nonzero" transform="rotate(-6 2355.653 -3164.274) scale(.9)"/></g><g><g><path d="M-.328-1.875c.75-1.5 3.531-1.375 2.375 1.094C3.891.688 2.453 2.901.609 2.031c-.562 1.344-2.718 1.25-2.593-.343-1.594.406-1.907-1.938-.625-2.407-.469-1.437 1.562-2.5 2.281-1.156z" style="fill-opacity:1;fill:#333;fill-rule:nonzero" transform="rotate(-6 2187.774 -2635.753) scale(.9)"/></g><path d="M1.305-2.145c1.311-1.046 3.104.021 1.604 2.11C4.363 1.41 2.013 3.189.68 2.002c-.747 1.56-3.501.549-2.718-.845-2.371-.267-1.616-3.406.596-2.835.179-1.502 2.247-1.884 2.747-.467z" style="fill-opacity:1;fill:#333;fill-rule:nonzero" transform="rotate(-6 2298.239 -3082.835) scale(.9)"/></g><g><path d="M-15.31-8.12C-11.485 4.156 5.264 8.647 15.31 1.215 4.451 7.995-10.984 4.697-15.31-8.12z" style="fill-opacity:1;fill:#dbcdc4;fill-rule:nonzero" transform="rotate(-6 2404.564 -2673.6) scale(.9)"/><path d="M-15.31-1.697c9.804-8.178 29.463-1.224 30.62 10.335C14.72-3.001-6.317-10.257-15.31-1.697z" style="fill-opacity:1;fill:#dbcdc4;fill-rule:nonzero" transform="rotate(-6 2075.04 -2752.745) scale(.9)"/><g style="stroke:#222021;stroke-opacity:1;stroke-width:3;stroke-linecap:round;stroke-linejoin:round"><path d="M15.31 1.215C4.435 8.119-10.828 3.956-15.31-8.12" transform="rotate(-6 2404.564 -2673.6) scale(.9)"/></g><g style="stroke:#222021;stroke-opacity:1;stroke-width:3;stroke-linecap:round;stroke-linejoin:round"><path d="M-15.31-1.697C-4.458-8.638 11.729-3.736 15.31 8.638" transform="rotate(-6 2075.04 -2752.745) scale(.9)"/></g><g style="stroke:#222021;stroke-opacity:1;stroke-width:3;stroke-linecap:round;stroke-linejoin:round"><path d="M-3.462 15.684C-7.736 4.167-3.236-8.665 7.736-15.684" transform="rotate(-6 2205.511 -2561.155) scale(.9)"/></g><g style="stroke:#222021;stroke-opacity:1;stroke-width:3;stroke-linecap:round;stroke-linejoin:round"><path d="M3.812-15.184C7.386-2.834 2.219 9.085-7.386 15.184" transform="rotate(-6 2274.415 -2862.193) scale(.9)"/></g></g><g><path d="M-15.81-2.244C-3.767-9.071 10.876-5.955 15.81 8.09 9.436-4.471-3.636-7.66-15.81-2.244z" style="fill-opacity:1;fill:#dbcdc4;fill-rule:nonzero" transform="rotate(-6 2193.598 -3199.684) scale(.9)"/><path d="M-15.81-8.09C-11.47 3.785 5.946 9.299 15.81 2.244 5.702 9.15-11.026 3.553-15.81-8.09z" style="fill-opacity:1;fill:#dbcdc4;fill-rule:nonzero" transform="rotate(-6 2517.726 -3128.865) scale(.9)"/><g style="stroke:#222021;stroke-opacity:1;stroke-width:3;stroke-linecap:round;stroke-linejoin:round"><path d="M-15.81-2.244C-4.331-8.09 9.964-3.388 15.81 8.09" transform="rotate(-6 2193.598 -3199.684) scale(.9)"/></g><g style="stroke:#222021;stroke-opacity:1;stroke-width:3;stroke-linecap:round;stroke-linejoin:round"><path d="M15.81 2.244C4.331 8.09-9.964 3.388-15.81-8.09" transform="rotate(-6 2517.726 -3128.865) scale(.9)"/></g><g style="stroke:#222021;stroke-opacity:1;stroke-width:3;stroke-linecap:round;stroke-linejoin:round"><path d="M-2.176 15.684C-8.022 4.206-3.455-9.838 8.022-15.684" transform="rotate(-6 2319.725 -3001.098) scale(.9)"/></g><g style="stroke:#222021;stroke-opacity:1;stroke-width:3;stroke-linecap:round;stroke-linejoin:round"><path d="M2.176-15.684C8.022-4.205 3.455 9.838-8.022 15.684" transform="rotate(-6 2391.607 -3327.45) scale(.9)"/></g></g></g></g><g><g><g style="fill-opacity:1;fill:#e8e263;fill-rule:nonzero;stroke:#5f5f3a;stroke-opacity:1;stroke-width:3;stroke-linecap:round;stroke-linejoin:round"><path d="M-14.41-3.958c.619-2.253 7.572-2.309 15.53-.123 7.959 2.186 13.91 5.784 13.291 8.038-.619 2.253-7.572 2.31-15.531.124-7.958-2.185-13.909-5.785-13.29-8.039z" style="fill-opacity:1;fill:#e8e263;fill-rule:nonzero" transform="rotate(-1 15447.809 -11813.612) scale(.9)"/></g><g style="fill-opacity:1;fill:#f7c39c;fill-rule:nonzero;stroke:#54341d;stroke-opacity:1;stroke-width:3;stroke-linecap:round;stroke-linejoin:round"><path d="M27.901-47.567c-3.538 11.996-10.383 32.613-20.872 64.22C.547 36.185-7.013 66.934-20.225 60.436c-11.078-5.448 4.205-46.139 7.48-56.729C-7.701-12.6-2.794-20.818 8.501-52.474c3.581-14.46 22.802-8.513 19.4 4.907z" style="fill-opacity:1;fill:#f7c39c;fill-rule:nonzero" transform="rotate(-1 16677.807 -11384.722) scale(.9)"/></g><g style="fill-opacity:1;fill:#faf76a;fill-rule:nonzero;stroke:#5f5d00;stroke-opacity:1;stroke-width:3;stroke-linecap:round;stroke-linejoin:round"><path d="M-2.572-50.702c.447 6.801 27.719 12.441 28.821 7.915C17.798-18.89 3.452 50.702-18.648 37.544c-7.601-4.526-2.088-35.765 6.492-57.838 3.551-9.138 9.584-30.408 9.584-30.408z" style="fill-opacity:1;fill:#faf76a;fill-rule:nonzero" transform="rotate(-1 17863.485 -11224.222) scale(.9)"/></g><g><g style="fill-opacity:1;fill:#f7c39c;fill-rule:nonzero;stroke:#54341d;stroke-opacity:1;stroke-width:3;stroke-linecap:round;stroke-linejoin:round"><path d="M21.881-44.64c2.223-9.127-11.777-12.752-14.235-4.335C-3.009-19.808-6.021-9.017-21.315 36.651c-1.467 4.377-.251 9.317 3.739 11.982 5.004 3.34 12.725 1.528 14.617-4.323 8.416-26.012 15.52-48.782 24.84-88.95z" style="fill-opacity:1;fill:#f7c39c;fill-rule:nonzero" transform="rotate(-1 11971.134 -12919.59) scale(.9)"/></g><g><g style="fill-opacity:1;fill:#f7c39c;fill-rule:nonzero;stroke:#54341d;stroke-opacity:1;stroke-width:3;stroke-linecap:round;stroke-linejoin:round"><path d="M6.308-4.483s.129-10.919 4.006-9.7c3.877 1.219 1.715 8.231 1.344 11.721C11.286 1.026 7.45 15.402-3.93 11.769-14.191 8.494 6.308-4.483 6.308-4.483z" style="fill-opacity:1;fill:#f7c39c;fill-rule:nonzero" transform="rotate(-1 9237.937 -13734.866) scale(.9)"/></g><path d="M-1.555 25.769c7.008.213 14.207-7.344 9.431-17.025.094-19.302 2.024-30.45-1.919-30.962C.978-22.865 1.226-8.456 1.31 1.136c.146-6.309-.578-18.698 2.344-22.434-.104-1.728-.813-2.599-1.487-2.824C-3.405-25.983-2.767-11.848-3.118.96c.185-5.403.131-7.782.427-15.842.592-4.405 1.102-6.725-1.012-6.475-4.058.479-3.12 10.996-3.756 22.291.37-6.57-.213-10.672.976-18.127-4.174-.279-3.883 9.396-4.604 18.126-1.565 15.65 3.459 24.652 9.532 24.836z" style="fill-opacity:1;fill:#f5c29b;fill-rule:nonzero" transform="rotate(-1 8550.997 -13686.585) scale(.9)"/><g style="stroke:#523624;stroke-opacity:1;stroke-width:3;stroke-linecap:round;stroke-linejoin:round"><path d="M8.089 9.835C6.202-1.064 11.662-21.781 6.382-22.469 1.403-23.118 1.65-8.708 1.734.883c.146-6.309-.578-18.696 2.344-22.433-.104-1.727-.813-2.598-1.488-2.823C-2.981-26.235-2.343-12.1-2.695.709c.185-5.403.132-7.783.428-15.842.592-4.406 1.102-6.726-1.013-6.477-4.057.48-3.119 10.997-3.756 22.293.371-6.57-.212-10.674.977-18.128-4.174-.279-3.317 9.274-4.038 18.005-1.565 15.65 4.072 24.287 8.966 24.958 5.234.717 7.957-.72 11.422-7.022" transform="rotate(-1 8564.182 -13664.835) scale(.9)"/></g></g><g><path d="M-24.125-144.375c-1.647 4.116-3.875 11-3.875 11l11.625 3.5s2.125-6.375 3.25-11c2-7.125-8.5-9.75-11-3.5z" style="fill-opacity:1;fill:#f7c39c;fill-rule:nonzero" transform="rotate(-1 16898.976 -14689.068) scale(.9)"/></g></g><g><path d="M-53.938-57.125C-56.864-47.8-59.25-41.5-59.25-41.5l15.75 5.25s1.812-3.937 5.437-15.875-12.187-16.75-15.875-5z" style="fill-opacity:1;fill:#f7c39c;fill-rule:nonzero" transform="rotate(-1 16898.976 -14689.068) scale(.9)"/></g></g><path d="M50 82.781c-30.128 18-67.5 16.083-90.5 11.417l-7-136.417c-2.5-41.942 72.328-58.561 82.454-4 6.713 36.167 11.972 88.191 15.046 129z" style="fill-opacity:1;fill:#faf76a;fill-rule:nonzero" transform="rotate(2 -10374.81 4814.6) scale(.9)"/><g style="stroke:#5f5d00;stroke-opacity:1;stroke-width:3;stroke-linecap:round;stroke-linejoin:round"><path d="m-40.5 97.489-7-136.417c-2.5-41.942 72.328-58.561 82.454-4C41.667-6.761 46.926 45.263 50 86.072" transform="rotate(2 -10289.966 4816.08) scale(.9)"/></g><g><path d="M-14.27 32.445c1.515-14.399 5.581-48.45 9.739-60.118 4.159-11.669 18.801 1.15 18.801 1.15S6.725 15.328 4.557 39.342c-6.737-1.427-13.822-4.444-18.827-6.897z" style="fill-opacity:1;fill:#f7c39c;fill-rule:nonzero" transform="rotate(2 -11552.297 3024.967) scale(.9)"/><g style="stroke:#54341d;stroke-opacity:1;stroke-width:3;stroke-linecap:round;stroke-linejoin:round"><path d="M-14.27 32.445c1.515-14.399 5.581-48.45 9.739-60.118 4.159-11.669 18.801 1.15 18.801 1.15S6.725 15.328 4.557 39.342" transform="rotate(2 -11552.297 3024.967) scale(.9)"/></g><path d="M15.91-48C29.875-46.715 13.375-10.965 9.375.785s-11 44.25-11 44.25-13.75 3.5-28.25 0c1.704-14.063 2-31 14-58.75S8.945-48.535 15.91-48z" style="fill-opacity:1;fill:#faf76a;fill-rule:nonzero" transform="rotate(2 -9888.301 3543.346) scale(.9)"/><g style="stroke:#5f5d00;stroke-opacity:1;stroke-width:3;stroke-linecap:round;stroke-linejoin:round"><path d="M21.239-8.316c-1.322 3.441-2.488 6.433-3.228 8.604-4 11.75-11 44.25-11 44.25s-13.75 3.625-28.25 0c1.956-15.777 2.75-31.375 14-58.75 9.737-23.691 20.922-32.176 28.207-33.951" transform="rotate(2 -9897.227 3320.456) scale(.9)"/></g></g><g><g style="fill-opacity:1;fill:#f7c39c;fill-rule:nonzero;stroke:#54341d;stroke-opacity:1;stroke-width:3;stroke-linecap:round;stroke-linejoin:round"><path d="M72.355-1.998C70.909 38.087 43.659 68.779-.727 72.084-40.978 75.08-73.809 40.364-73.809.002c0-40.362 32.72-75.082 73.082-75.082 43.09 0 74.537 32.747 73.082 73.082z" style="fill-opacity:1;fill:#f7c39c;fill-rule:nonzero" transform="rotate(6 -2352.665 1673.17) scale(.9)"/></g><g style="stroke:#54341d;stroke-opacity:1;stroke-width:3;stroke-linecap:round;stroke-linejoin:round"><path d="M-10.5-11.75c21.875 8.734 11.875 23.5-.875 14.375" transform="rotate(6 -2414.546 1986.632) scale(.9)"/></g><g style="fill-opacity:1;fill:#84521d;fill-rule:nonzero;stroke:#3c1900;stroke-opacity:1;stroke-width:3;stroke-linecap:round;stroke-linejoin:round"><path d="M-37.288 77.848s-11.638.068-21.638-8.432c-4.75-2.5-.5-6.25-4.5-12s-8-9.569-8.25-13.034c-.25-3.466 1-12.216 1.75-17.716.75-5.5-1.5-16.25 4.5-33 2.531-4.817 8.605-10.75 10.928-14 2.322-3.25 5.572-11.217 10.822-14.359 4-6.141 9.667-9.558 24.167-14.058 12-7 71.372-29.164 91.436 29.284-13.978-11.367-55.104-28.993-92.594 2.164C-50.552 8.79-54.176 48.04-37.288 77.848z" style="fill-opacity:1;fill:#84521d;fill-rule:nonzero" transform="rotate(6 -1993.995 1464.523) scale(.9)"/></g><g style="fill-opacity:1;fill:#f7c39c;fill-rule:nonzero;stroke:#54341d;stroke-opacity:1;stroke-width:3;stroke-linecap:round;stroke-linejoin:round"><path d="M7.782-18.657c-23.5 1.25-13.938 37.314 7.937 25.938" style="fill-opacity:1;fill:#f7c39c;fill-rule:nonzero" transform="rotate(6 -2628.203 1067.88) scale(.9)"/></g><g><path d="M-15.428-12.283c15.82 1.139 19.125 1.105 29.981-3.94 19.775-9.191 22.749 9.482 13.084 21.492-12.315 15.303-33.613 20.146-49.19 6.053-15.75-14.25-3.728-24.315 6.125-23.605z" style="fill-opacity:1;fill:#78180b;fill-rule:nonzero" transform="rotate(6 -2684.692 1834.093) scale(.9)"/><g style="fill-opacity:1;fill:#c74c4f;fill-rule:nonzero;stroke:#4b0000;stroke-opacity:1;stroke-width:3;stroke-linecap:round;stroke-linejoin:round"><path d="M-13.333 1.393C-9.058-6.868 7.416-9.191 10.249-4.441 13.333.642-.167 2.643.363 9.191c-3.073-.276-9.31-3.689-13.696-7.798z" style="fill-opacity:1;fill:#c74c4f;fill-rule:nonzero" transform="rotate(6 -2762.1 1754.965) scale(.9)"/></g><g style="fill-opacity:1;fill:#fff;fill-rule:nonzero;stroke:#7d7e7e;stroke-opacity:1;stroke-width:3;stroke-linecap:round;stroke-linejoin:round"><path d="M-19.76-1.271c-1.687 9.938 12.375 9.875 10.75.812.438 9.001 12.437 7.876 10.792-1.979 1.333 10.417 13.333 6.25 9.333-3.666 2.167 8 10.333 9.562 10.25-1.292-4.417-1.271-9.36.708-11.019 1.455C2.618-2.477-3.114.416-19.76-1.271z" style="fill-opacity:1;fill:#fff;fill-rule:nonzero" transform="rotate(6 -2594.512 1884.737) scale(.9)"/></g><g style="stroke:#3d0404;stroke-opacity:1;stroke-width:3;stroke-linecap:round;stroke-linejoin:round"><path d="M-15.428-12.283c15.82 1.139 19.125 1.105 29.981-3.94 19.775-9.191 22.749 9.482 13.084 21.492-12.315 15.303-33.613 20.146-49.19 6.053-15.75-14.25-3.728-24.315 6.125-23.605z" transform="rotate(6 -2684.692 1834.093) scale(.9)"/></g></g><g><path d="M20.382 15.204c-8.324 11.274-24.347 13.402-35.441 4.275-8.94-7.355-13.647-22.427-5.388-34.42 7.95-11.542 24.213-13.665 35.488-5.341 11.274 8.324 13.665 24.212 5.341 35.486z" style="fill-opacity:1;fill:#fff;fill-rule:nonzero" transform="rotate(6 -2215.989 1595.136) scale(.9)"/></g><g><path d="M12.74-19.049c9.796 7.871 12.04 22.648 6.657 32.259-4.64 8.285-19.138 13.451-30.204 6.328-11.076-7.131-13.973-23.557-6.132-34.142 7.194-9.712 20.202-12.058 29.679-4.445z" style="fill-opacity:1;fill:#fff;fill-rule:nonzero" transform="rotate(6 -2164.34 2126.33) scale(.9)"/></g><g><g><path d="M-.984-1.875c.187-1.328 2.218-1.406 2.187-.078C2.39-2.375 3.39-.594 1.968.219c.517 1.125-.906 2.562-1.875 1.703C-1.172 3.281-2.61 1.594-2.219.484-3.391-.578-2.656-2.453-.984-1.875z" style="fill-opacity:1;fill:#313131;fill-rule:nonzero" transform="rotate(6 -2141.842 1739.935) scale(.9)"/></g><path d="M1.135-1.768c-.047-1.581-2.514-1.885-2.665-.399-1.074-.811-2.272.9-1.248 2.179-.895.856.46 2.315 1.677 1.872.731 1.768 3.474.569 3.112-.683 1.791-1.174.782-3.422-.876-2.969z" style="fill-opacity:1;fill:#313131;fill-rule:nonzero" transform="rotate(6 -2089.123 2239.07) scale(.9)"/></g><g><path d="M17.743 1.492C9.526-6.592-10.408-4.915-17.743 6.833c6.42-12.49 28.411-14.522 35.486-5.341z" style="fill-opacity:1;fill:#f5c29b;fill-rule:nonzero" transform="rotate(6 -2027.819 1581.733) scale(.9)"/><path d="M17.72-6.701C9.954 4.843-7.559 6.963-17.72-2.426c9.114 10.058 28.568 8.343 35.44-4.275z" style="fill-opacity:1;fill:#f5c29b;fill-rule:nonzero" transform="rotate(6 -2405.274 1608.136) scale(.9)"/><g style="stroke:#363636;stroke-opacity:1;stroke-width:3;stroke-linecap:round;stroke-linejoin:round"><path d="M-17.743 6.833C-9.794-4.709 6.469-6.833 17.743 1.492" transform="rotate(6 -2027.819 1581.733) scale(.9)"/></g><g style="stroke:#363636;stroke-opacity:1;stroke-width:3;stroke-linecap:round;stroke-linejoin:round"><path d="M17.72-6.701C9.396 4.573-6.626 6.701-17.72-2.426" transform="rotate(6 -2405.274 1608.136) scale(.9)"/></g><g style="stroke:#363636;stroke-opacity:1;stroke-width:3;stroke-linecap:round;stroke-linejoin:round"><path d="M-6.833-17.743C4.441-9.419 6.833 6.469-1.492 17.743" transform="rotate(6 -2204.04 1784.1) scale(.9)"/></g><g style="stroke:#363636;stroke-opacity:1;stroke-width:3;stroke-linecap:round;stroke-linejoin:round"><path d="M6.823 17.209C-2.117 9.855-6.823-5.217 1.436-17.209" transform="rotate(6 -2225.634 1406.233) scale(.9)"/></g></g><g><path d="M14.839 1.584C5.753-6.712-8.835-4.554-14.839 6.029-8.22-4.126 5.273-5.963 14.839 1.584z" style="fill-opacity:1;fill:#f5c29b;fill-rule:nonzero" transform="rotate(6 -1986.221 2117.602) scale(.9)"/><path d="M15.487-7.046C10.838 3.464-5.577 6.725-15.945-.449c9.582 7.676 27.289 4.207 31.432-6.597z" style="fill-opacity:1;fill:#f5c29b;fill-rule:nonzero" transform="rotate(6 -2337.445 2154.248) scale(.9)"/><g style="stroke:#363636;stroke-opacity:1;stroke-width:3;stroke-linecap:round;stroke-linejoin:round"><path d="M-14.839 6.029C-7.645-3.682 5.362-6.029 14.839 1.584" transform="rotate(6 -1986.221 2117.602) scale(.9)"/></g><g style="stroke:#363636;stroke-opacity:1;stroke-width:3;stroke-linecap:round;stroke-linejoin:round"><path d="M15.102-6.726C10.462 1.559-4.036 6.726-15.102-.398" transform="rotate(6 -2337.445 2154.248) scale(.9)"/></g><g style="stroke:#363636;stroke-opacity:1;stroke-width:3;stroke-linecap:round;stroke-linejoin:round"><path d="M6.986 17.071C-4.09 9.94-6.986-6.486.855-17.071" transform="rotate(6 -2177.507 1972.45) scale(.9)"/></g><g style="stroke:#363636;stroke-opacity:1;stroke-width:3;stroke-linecap:round;stroke-linejoin:round"><path d="M-6.02-16.13C3.776-8.259 6.02 6.519.637 16.13" transform="rotate(6 -2147.71 2288.736) scale(.9)"/></g></g><g><g style="stroke:#363636;stroke-opacity:1;stroke-width:3;stroke-linecap:round;stroke-linejoin:round"><path d="M-12.295 4.063C-8.33.563 1.17-4.063 12.295-.813" transform="rotate(6 -1821.557 1577.82) scale(.9)"/></g></g><g><g style="stroke:#363636;stroke-opacity:1;stroke-width:3;stroke-linecap:round;stroke-linejoin:round"><path d="M-9.5 1.875c5.125-3.125 14.125-3.75 19-.625" transform="rotate(6 -1796.648 2016.475) scale(.9)"/></g></g></g></g><g style="stroke:#222021;stroke-opacity:1;stroke-width:3;stroke-linecap:round;stroke-linejoin:round"><path d="M-28.75-135.75s0 0 0 0M-17-144.5c-4.5-15.25-13-37.5-14.5-49.75M-4-145c3.25-8 1.25-20 5-28M6.5-136.5c.5-4.25 12-29.75 13.5-41.5" transform="matrix(1 0 0 1 256 256)"/></g></svg>